#!OML:ASF H:\Terrain\Patient Classification 1\Terrain2\Thursday\justin.ASF
:FULLY-SPECIFIED
:DEGREES
4036
root 7.68922 17.9167 10.7507 2122.98 -82.5436 36.0151
lowerback 10.6179 -1.37109 -6.87351
upperback 3.81576 -2.5814 2.63914
thorax -1.51868 -1.41232 6.95595
lowerneck -15.6358 -1.59865 -9.41311
upperneck 36.0238 -2.26329 4.28086
head 15.4286 -2.07444 2.97477
rclavicle -8.94531e-015 -7.95139e-016
rhumerus -32.4464 -6.22636 -77.4671
rradius 44.521
rwrist -16.5945
rhand -22.1534 9.96423
rfingers 7.12502
rthumb 4.2606 -19.9729
lclavicle -8.94531e-015 -7.95139e-016
lhumerus -30.103 -2.95837 87.8454
lradius 42.3325
lwrist 3.35109
lhand -16.0954 21.7982
lfingers 7.12502
lthumb 10.1081 51.5354
rfemur -60.8755 -10.7443 16.7983
rtibia 72.0624
rfoot -8.0779 4.76177
rtoes -3.47013
lfemur 17.1896 -4.46798 -27.7024
ltibia -1.27222e-014
lfoot -0.507962 -5.41776
ltoes 14.8186
4037
root 7.59622 17.8915 10.7379 2123.44 -82.4598 35.5383
lowerback 10.7336 -1.36152 -6.8832
upperback 3.86816 -2.57934 2.61772
thorax -1.52807 -1.41365 6.9425
lowerneck -15.613 -1.62076 -9.4485
upperneck 35.9047 -2.30742 4.37407
head 15.3708 -2.07798 3.01133
rclavicle 3.47873e-014 2.70347e-014
rhumerus -32.354 -5.8729 -77.6107
rradius 44.1151
rwrist -16.7685
rhand -21.9718 10.2499
rfingers 7.12502
rthumb 4.43601 -19.6836
lclavicle 3.47873e-014 2.70347e-014
lhumerus -29.8898 -2.92985 87.6405
lradius 42.1546
lwrist 3.38349
lhand -15.9502 20.9443
lfingers 7.12502
lthumb 10.2482 50.6746
rfemur -60.5814 -10.766 16.9775
rtibia 71.4609
rfoot -7.94359 4.4101
rtoes -4.49426
lfemur 17.5473 -4.54377 -27.6068
ltibia 1.59028e-014
lfoot -0.758452 -5.59334
ltoes 15.7284
4038
root 7.50287 17.8685 10.7251 2122.94 -82.1659 35.9581
lowerback 10.9349 -1.24929 -6.97699
upperback 3.9336 -2.45843 2.42907
thorax -1.59491 -1.35222 6.78958
lowerneck -15.4922 -1.74923 -9.31339
upperneck 35.8197 -2.62622 4.57044
head 15.3306 -2.16296 3.01491
rclavicle -1.31198e-014 1.51076e-014
rhumerus -32.4409 -6.17725 -77.7747
rradius 43.8077
rwrist -16.8886
rhand -21.6268 10.1492
rfingers 7.12502
rthumb 4.76916 -19.7772
lclavicle -1.31198e-014 1.51076e-014
lhumerus -29.6732 -3.51782 87.5827
lradius 41.9441
lwrist 4.06004
lhand -16.1071 20.5455
lfingers 7.12502
lthumb 10.0968 50.2833
rfemur -60.1988 -10.7878 16.7773
rtibia 71.1168
rfoot -7.73249 4.09043
rtoes -3.67872
lfemur 18.0056 -4.69638 -27.7983
ltibia 9.54166e-015
lfoot -1.09556 -5.7638
ltoes 14.8425
4039
root 7.40426 17.8431 10.7082 2122.56 -82.0165 36.3965
lowerback 10.9795 -1.20673 -7.20928
upperback 3.97841 -2.43088 2.38565
thorax -1.56737 -1.34307 6.87431
lowerneck -15.6374 -1.82878 -9.5282
upperneck 35.9696 -2.81197 4.93769
head 15.466 -2.22489 3.18273
rclavicle 2.54444e-014 -3.18055e-015
rhumerus -32.4082 -6.10701 -78.015
rradius 43.4835
rwrist -16.3738
rhand -21.5715 9.27952
rfingers 7.12502
rthumb 4.82251 -20.6456
lclavicle 2.54444e-014 -3.18055e-015
lhumerus -29.5203 -3.57796 87.5547
lradius 41.9124
lwrist 4.93787
lhand -16.0775 21.1779
lfingers 7.12502
lthumb 10.1253 50.9143
rfemur -60.0607 -10.9991 16.9101
rtibia 70.9595
rfoot -7.49258 4.11767
rtoes -0.800536
lfemur 18.3135 -4.75438 -27.8708
ltibia 2.22639e-014
lfoot -1.29855 -5.87838
ltoes 16.1238
4040
root 7.30319 17.8237 10.6866 2123.71 -82.1368 35.4213
lowerback 10.906 -1.2055 -7.1319
upperback 3.95055 -2.41442 2.4043
thorax -1.56212 -1.33295 6.84545
lowerneck -15.7505 -1.85372 -9.56697
upperneck 36.0649 -2.90255 5.12087
head 15.5522 -2.24606 3.2557
rclavicle 1.39149e-015 4.77083e-015
rhumerus -32.3731 -5.97632 -78.2841
rradius 42.9968
rwrist -15.824
rhand -21.1927 8.9885
rfingers 7.12502
rthumb 5.18825 -20.928
lclavicle 1.39149e-015 4.77083e-015
lhumerus -29.3938 -3.1921 87.1928
lradius 41.7126
lwrist 4.40849
lhand -15.963 21.4491
lfingers 7.12502
lthumb 10.2358 51.18
rfemur -59.9806 -11.0854 17.5412
rtibia 70.8488
rfoot -7.43054 3.9517
rtoes 4.60717
lfemur 18.4623 -4.75143 -27.5187
ltibia 4.45278e-014
lfoot -1.35259 -6.02624
ltoes 18.8453
4041
root 7.2018 17.8063 10.6705 2125.3 -82.0974 34.0836
lowerback 10.7795 -1.19971 -6.88842
upperback 3.84666 -2.37073 2.31862
thorax -1.62528 -1.29972 6.60669
lowerneck -15.5544 -1.91459 -9.26963
upperneck 35.9568 -3.05202 4.9723
head 15.4584 -2.28635 3.10932
rclavicle 3.77691e-014 -2.78299e-014
rhumerus -32.4695 -6.6023 -78.3894
rradius 42.3887
rwrist -15.8015
rhand -20.4695 9.73267
rfingers 7.12502
rthumb 5.88652 -20.1656
lclavicle 3.77691e-014 -2.78299e-014
lhumerus -29.3162 -3.03594 86.8283
lradius 41.2726
lwrist 3.46729
lhand -16.2333 21.4733
lfingers 7.12502
lthumb 9.9751 51.2169
rfemur -59.9376 -11.2392 18.1309
rtibia 70.93
rfoot -7.5763 3.22461
rtoes 8.31871
lfemur 18.5485 -4.90215 -27.2599
ltibia 3.81667e-014
lfoot -1.52441 -6.25394
ltoes 17.6986
4042
root 7.09725 17.7908 10.6621 2124.76 -81.8577 34.8785
lowerback 10.6506 -1.19996 -6.93387
upperback 3.76967 -2.36646 2.19054
thorax -1.64001 -1.29134 6.49201
lowerneck -15.4725 -1.98216 -9.38032
upperneck 35.9132 -3.16264 5.07705
head 15.4338 -2.33281 3.15388
rclavicle 2.64384e-014 -4.77083e-015
rhumerus -32.497 -7.03599 -78.4496
rradius 41.6454
rwrist -15.5751
rhand -20.3175 10.8964
rfingers 7.12502
rthumb 6.03325 -18.9977
lclavicle 2.64384e-014 -4.77083e-015
lhumerus -29.3045 -2.88071 86.8345
lradius 40.9198
lwrist 3.88697
lhand -17.2891 21.8998
lfingers 7.12502
lthumb 8.95639 51.6897
rfemur -59.9304 -11.4868 18.3122
rtibia 71.2208
rfoot -7.95011 2.24386
rtoes 10.2718
lfemur 18.6575 -5.03396 -27.4119
ltibia 0
lfoot -1.55275 -6.50295
ltoes 16.7133
